# xmcd CD database file
#
# Track frame offsets:
#	150
#	11319
#	24678
#	38261
#	50874
#	63371
#	82701
#	98850
#	115792
#	131741
#	144811
#	156448
#	170241
#	182356
#	193643
#	204436
#	218430
#	233751
#	246962
#	267457
#
# Disc length: 3781 seconds
#
# Revision: 0
# Processed by: cddbd v1.5PL3 Copyright (c) Steve Scherf et al.
# Submitted via: CDex 1.50beta10
#
DISCID=090ec314
DTITLE=Eddie Hinton - Playin' Around - The Songwriting Sessions (Vol 2)
DYEAR=2004
DGENRE=Blues
TTITLE0=Big City Woman
TTITLE1=Down In Texas
TTITLE2=Love Attack
TTITLE3=Satisfaction Guaranteed
TTITLE4=Too Much Monkey Business
TTITLE5=Help Me To Make It (The Power Of A Woman's Love)
TTITLE6=Something Heavy
TTITLE7=Playin' Around
TTITLE8=Struttin' My Stuff
TTITLE9=Home For The Summer
TTITLE10=A Man Ain't A Man
TTITLE11=You Can't Do That
TTITLE12=Still Water Runs Deep
TTITLE13=You Don't Call Me No More
TTITLE14=You're All Around Me
TTITLE15=Have A Little Mercy On Me
TTITLE16=That's The Way Love Is
TTITLE17=Railroad Trestles In California
TTITLE18=The Well Of Love (Live)
TTITLE19=Mr' Pitiful (Live)
EXTD=YEAR: 2004
EXTT0=
EXTT1=
EXTT2=
EXTT3=
EXTT4=
EXTT5=
EXTT6=
EXTT7=
EXTT8=
EXTT9=
EXTT10=
EXTT11=
EXTT12=
EXTT13=
EXTT14=
EXTT15=
EXTT16=
EXTT17=
EXTT18=
EXTT19=
PLAYORDER=
